<svg xmlns="http://www.w3.org/2000/svg" viewBox="0 0 48 48">
  <rect width="48" height="48" rx="9" fill="#232320"/>
  <rect x="30" y="5" width="11" height="8" rx="2.5" fill="#8B6B4A"/>
  <rect x="15" y="9" width="28" height="26" rx="2.5" fill="#8B6B4A"/>
  <rect x="20" y="11" width="11" height="8" rx="2.5" fill="#7C8792"/>
  <rect x="10" y="15" width="28" height="26" rx="2.5" fill="#7C8792"/>
  <rect x="7" y="17" width="11" height="8" rx="2.5" fill="#E8E2D0"/>
  <rect x="5" y="21" width="28" height="23" rx="2.5" fill="#E8E2D0"/>
  <path d="M9 27.5h20" stroke="#C9A24A" stroke-width="1.4"/>
  <path d="M10 31v9M12.5 31v9M14 31v9M17 31v9M18.5 31v9M21.5 31v9M24 31v9M25.5 31v9M28 31v9" stroke="#232320" stroke-width="1.2"/>
</svg>
